#!OML:ASF F:\VICON\USERDATA\INSTALL\rory3\rory3.ASF
:FULLY-SPECIFIED
:DEGREES
132
root -1.0202958780664908 17.262539148142704 30.431897221958902 1.4306893109537397 3.9934864240205017 -1.0794518311191361
lfemur -32.93601182465424 5.792536836863599 -25.349139493783607
ltibia 62.5380748734093
lfoot -11.273554103016618 -9.93918289973486
ltoes 18.349243498733657
rfemur -20.203741230749444 -8.994530738583043 19.387178185514095
rtibia 77.31798065013099
rfoot 27.28244642189726 -15.653464785292513
rtoes 4.453900955066285
lowerback 1.0 -1.0164512546943407 -1.97827869070482
upperback 0.2045729099254911 -0.9586188005147984 0.8266900099062777
thorax -9.684278996286444 -0.5264925346160952 2.31633868631006
lowerneck -20.527298185567652 -6.06164199628412 -1.6399056542360695
upperneck 14.579518647928632 -5.9179760348496435 3.240901997454057
head 7.839995784717504 -3.0430898210620723 0.7306123492732687
lclavicle -5.518782035157978e-14 -2.3997391704336597e-14
lhumerus -48.794508567706366 -2.542570125810556 90.89336925952267
lradius 96.13085094334612
lwrist 35.27437657892614
lhand -29.379376912054173 -1.882025795661053
lfingers nan
lthumb -2.4035153005185745 28.819957410617796
rclavicle -4.835247485053186e-14 -1.838100638010889e-14
rhumerus -43.3391563470976 9.884243781179055 -97.86651055273862
rradius 106.36442261148594
rwrist -10.304188451683764
rhand -18.872773256935865 1.0
rfingers nan
rthumb 7.425352541278666 11.537541559642497
133
root -0.8963159360121934 17.248683139844054 30.298482331514304 1.3547940122539779 4.727667744177913 3.7012279818170164
lfemur -29.260637338980967 4.754307917289356 -30.064487490358054
ltibia 63.498929430457125
lfoot -15.041121382073923 -5.837254690459611
ltoes 11.281868742938354
rfemur -19.053288170348573 -9.747456993006303 12.829173841341456
rtibia 79.49000111159764
rfoot 25.000933251660932 -11.759456109919542
rtoes 3.6922228934270667
lowerback 1.0 -0.9364492557570883 -4.758479403134423
upperback 0.9228661216711513 -1.4140035379689473 -0.7112763920782076
thorax -8.251063102769395 -0.64186130580296 2.6093925225011665
lowerneck -20.501084330643415 -5.95105631980171 -1.5822874531455096
upperneck 14.186908241684332 -5.853057585567815 3.522843728672134
head 7.734538280763556 -2.9718297545525525 0.8079292334873118
lclavicle -1.3030783745584551e-14 -2.2717533641379067e-16
lhumerus -47.00306951415104 -3.482372501642196 91.33259681626085
lradius 95.85257782997749
lwrist 35.9825671606338
lhand -29.833378252065522 -0.5923184134293358
lfingers nan
lthumb -2.8244854389818332 30.272463426385492
rclavicle -6.330474670080047e-15 5.412418980199959e-15
rhumerus -44.1522584087214 8.408345150208836 -97.80164796626414
rradius 103.60616425200656
rwrist -11.116590909133517
rhand -19.22550082328752 1.0
rfingers nan
rthumb 7.057543838757007 11.403237335693571
134
root -0.9372502637578601 17.103976637255627 31.48134700386642 2.0359527262717325 4.760816322875554 2.1459127839629906
lfemur -28.928868124530045 4.231080388991504 -28.283697849639164
ltibia 64.87065817105508
lfoot -16.588773495722556 -3.311451870013066
ltoes 8.602482284458482
rfemur -23.184112646821976 -10.068311766510087 14.636782504699251
rtibia 83.33767537741812
rfoot 25.414439155693913 -10.81270909712382
rtoes 4.834880913296735
lowerback 1.0 -0.8932520331040077 -3.2695668915953044
upperback 0.161210252347959 -1.0343075566494173 -0.3984764835404687
thorax -9.2473667117172 -0.6053432909526381 2.146391029070527
lowerneck -20.53019681041567 -5.943158006877242 -1.5687416852184222
upperneck 14.119734162305164 -5.932672010248841 3.713573365226492
head 7.7379474198420395 -2.970588211206824 0.8527217571813568
lclavicle -2.762244063258455e-14 -2.7147744939017476e-14
lhumerus -45.35481248059909 -4.640638904864517 91.77511666435039
lradius 95.73981398669308
lwrist 36.46234852941991
lhand -28.979309906478814 -2.485871746564457
lfingers nan
lthumb -2.0105234850592923 28.362870257977388
rclavicle -2.061758495714905e-14 -2.1567652400446438e-14
rhumerus -45.1042482997367 6.845515633943871 -97.56897767049507
rradius 101.02934858153696
rwrist -11.210195720900241
rhand -19.876809587955925 1.0
rfingers nan
rthumb 6.444714395430353 11.699443792317705
135
root -0.9193829078956726 17.081879867408496 31.757051679494644 2.2155142594322017 4.851864350030286 2.141892049520672
lfemur -27.277059513694795 3.737395030066274 -27.869095354217933
ltibia 65.47560704623693
lfoot -18.213910359215276 -1.4116044597984754
ltoes 7.717001709945265
rfemur -25.219548199347066 -10.352825197297303 14.477668278200674
rtibia 85.73360912274504
rfoot 25.003913383820635 -9.106077194211927
rtoes 6.843109575813125
lowerback 1.0 -0.9110451665829118 -2.986305405039164
upperback 0.24080760219475333 -1.034467990900179 -0.5362178921867545
thorax -8.881201835102743 -0.639054490153446 2.052419433860422
lowerneck -20.982786680225733 -5.915276238276659 -1.3896537778259574
upperneck 14.140585774379476 -6.01687178451025 3.6677380918575313
head 7.786622460731189 -2.9813147461081497 0.8184639928493055
lclavicle -3.2134396431165334e-14 1.1972490332318333e-14
lhumerus -43.681955456870405 -5.768502314039015 92.07770368900889
lradius 95.79857252293512
lwrist 36.671866262122144
lhand -27.471798802951696 -5.343452954969873
lfingers nan
lthumb -0.5525021439570337 25.473762909248897
rclavicle -2.5489789872942412e-14 1.7742841728681807e-14
rhumerus -45.84762694049977 5.433152740834796 -97.2534624081222
rradius 98.73597464226664
rwrist -10.482342068760838
rhand -20.48057576976417 1.0
rfingers nan
rthumb 5.875452471169323 12.114870576520573
136
root -0.9286062755807684 17.05246702380613 31.656454702239586 2.176641681919667 4.683461407292899 2.149167685625565
lfemur -25.764448025432454 3.477204847142191 -27.536562475012747
ltibia 66.27698555532501
lfoot -19.816255449285748 0.18569248650078585
ltoes 6.727010935034198
rfemur -27.165574968568606 -10.488151445775102 14.44636062671185
rtibia 87.64421018459844
rfoot 24.189368276288672 -7.891325477007177
rtoes 10.039866351487827
lowerback 1.0 -0.8757140474373886 -2.9113165714044906
upperback 0.4051222377236687 -0.9331485921854616 -0.6322651560410452
thorax -8.677497539540868 -0.6417747416857383 2.0537907531931574
lowerneck -21.835621331512456 -5.735084491802023 -0.9904365720271109
upperneck 14.532780768196247 -6.010818343081189 3.3908865529141545
head 7.964316639090274 -2.9541500331671444 0.6990030201107729
lclavicle -4.206295018534095e-14 1.4890073719982174e-14
lhumerus -42.051047860286204 -6.8235839324417675 92.31777907925795
lradius 96.09064593462516
lwrist 36.33830660116819
lhand -26.0707639816547 -7.327305174473626
lfingers nan
lthumb 0.7909791756561626 23.46066335227812
rclavicle -3.527647339402712e-14 2.0784774053819016e-14
rhumerus -46.663320689170945 4.196108880731195 -96.84674130892326
rradius 97.08096923159383
rwrist -8.894431209940228
rhand -20.936795575645963 1.0
rfingers nan
rthumb 5.4585922980125225 10.649039128312964
137
root -0.9439666638404075 17.03620640840609 31.893330007148386 2.4428659733396083 4.214165722236105 2.015108237376812
lfemur -24.435105559374627 3.7031804122947287 -27.265090111409258
ltibia 66.5807338170006
lfoot -20.916079144258923 0.8790907841446991
ltoes 7.185053981854647
rfemur -29.764381498513483 -10.140348400696626 14.815844583029756
rtibia 88.95860702132451
rfoot 23.49616499530707 -7.309129032848308
rtoes 12.852860792319998
lowerback 1.0 -0.7308043237982103 -3.069284198164227
upperback 0.31923642521172496 -0.6478903387285868 -0.6033886201834141
thorax -8.498423189403077 -0.5719569788517892 2.1503178076636975
lowerneck -22.97704815992 -5.645738530741937 -0.9817996490532857
upperneck 15.213064278526561 -6.137010509823429 3.238903287006267
head 8.315358694410977 -2.9722892797354032 0.62887034717379
lclavicle -2.400843743189968e-14 2.162786467032536e-14
lhumerus -40.71903830376827 -7.6434072071840395 92.59835723702132
lradius 96.64444503616659
lwrist 35.44423730267282
lhand -25.335613810650337 -7.493564273699912
lfingers nan
lthumb 1.5069936038402143 23.28993299179562
rclavicle -1.711534553031073e-14 2.759735145757687e-14
rhumerus -47.80824684640633 3.1446333748883557 -96.27674431867906
rradius 96.24796679950076
rwrist -6.714608647721976
rhand -20.830682267598462 1.0
rfingers nan
rthumb 5.5733958761306495 12.678062651815107
138
root -0.9409529757105851 17.01958996474525 31.68389184217641 2.6751447696054993 4.015680421471081 2.282450713590816
lfemur -22.92012334175117 3.833818104848766 -27.39325978070121
ltibia 66.52699559163058
lfoot -21.795583965855023 1.3585629866822604
ltoes 8.018367515981861
rfemur -32.21098963153717 -10.159671234275681 14.687743028602744
rtibia 89.7796076949938
rfoot 22.843903979828596 -6.250482139337125
rtoes 14.167824235905986
lowerback 1.0 -0.686324809281107 -3.422430246385966
upperback 0.06831671041034976 -0.554486231690027 -0.6607701982098438
thorax -8.58798040774385 -0.5875736372507833 2.320159936209177
lowerneck -21.49856427731751 -5.332160737590697 -1.182032985902092
upperneck 14.782307664344273 -5.767243175540581 3.2771982318257655
head 8.032589956557151 -2.8123312156017115 0.6851718557619064
lclavicle -1.7383233093321935e-14 -2.147109366181955e-14
lhumerus -39.96226619675514 -8.10789616810897 92.83759054998075
lradius 97.70548989538224
lwrist 34.22490624871495
lhand -25.186822283825066 -7.323892780808549
lfingers nan
lthumb 1.6741942391154527 23.54502594917221
rclavicle -1.0163030165468385e-14 -1.5726976758528864e-14
rhumerus -49.474773063847735 2.344549492306145 -95.83065070699585
rradius 96.29220825098756
rwrist -5.126711451231676
rhand -20.871601115649657 1.0
rfingers nan
rthumb 5.538698732793936 13.302650588975446
139
root -0.9160443665252441 17.02072198664009 32.16441898321871 2.654610152971762 4.295654057423826 2.6946444848556688
lfemur -21.104754177594856 3.436079089566708 -27.523889879887612
ltibia 66.05311082376737
lfoot -21.90379099156182 2.17699327579124
ltoes 7.260961985132411
rfemur -34.14139902576217 -10.601789908374252 14.588496371601138
rtibia 89.92137763093717
rfoot 21.789463869840972 -5.180238508678363
rtoes 14.713219846550974
lowerback 1.0 -0.8177955908027565 -3.4010286457629473
upperback -0.1293201721354984 -0.724147074089371 -0.7263234498078434
thorax -9.012303173585702 -0.6870036406344026 2.377406291135034
lowerneck -20.023496231167236 -5.069186160121914 -1.3557221775286794
upperneck 14.16852979962697 -5.37861718445316 3.4085457408044357
head 7.6851290934244 -2.640766103152393 0.7749162812770639
lclavicle -1.6629576980471046e-14 6.616673674549747e-15
lhumerus -39.52994884932052 -8.32852898511804 92.95281192640778
lradius 99.33937637692317
lwrist 33.156739788302204
lhand -24.7507042768085 -7.641455685035334
lfingers nan
lthumb 2.0817181782878933 23.187498043832104
rclavicle -9.804110003147916e-15 1.236600985817254e-14
rhumerus -51.188002427915364 2.049486069838766 -95.52029307977313
rradius 96.841212673811
rwrist -4.946485572457927
rhand -20.902550310187035 1.0
rfingers nan
rthumb 5.507317677312276 13.487590213314242
